# xmcd
#
# Track frame offsets: 
#        150
#        18892
#        37106
#        52594
#        63199
#
# Disc length: 1047 seconds
#
# Revision: 0
# Processed by: cddbd v1.5.2PL0 Copyright (c) Steve Scherf et al.
# Submitted via: ExactAudioCopy v1.3
#
DISCID=31041505
DTITLE=Dave Kennedy - Dave Kennedy
DYEAR=1900
DGENRE=Country
TTITLE0=Three Dollar Wine
TTITLE1=Make It Rhyme
TTITLE2=Heroes
TTITLE3=One More Town
TTITLE4=These Days
EXTD=
EXTT0=
EXTT1=
EXTT2=
EXTT3=
EXTT4=
PLAYORDER=
